<svg width="465" height="134" viewBox="0 0 465 134" fill="none" xmlns="http://www.w3.org/2000/svg">
<path d="M175.648 49.6364L156.659 102H145.75L126.727 49.6364H137.67L150.932 89.9318H151.477L164.705 49.6364H175.648ZM191.286 103.159C187.968 103.159 184.968 102.545 182.286 101.318C179.604 100.068 177.479 98.2614 175.911 95.8977C174.365 93.5341 173.593 90.6364 173.593 87.2045C173.593 84.25 174.161 81.8182 175.297 79.9091C176.434 78 177.968 76.4886 179.9 75.375C181.831 74.2614 183.99 73.4205 186.377 72.8523C188.763 72.2841 191.195 71.8523 193.672 71.5568C196.809 71.1932 199.354 70.8977 201.309 70.6705C203.263 70.4205 204.684 70.0227 205.57 69.4773C206.456 68.9318 206.9 68.0455 206.9 66.8182V66.5795C206.9 63.6023 206.059 61.2955 204.377 59.6591C202.718 58.0227 200.24 57.2045 196.945 57.2045C193.513 57.2045 190.809 57.9659 188.831 59.4886C186.877 60.9886 185.525 62.6591 184.775 64.5L175.195 62.3182C176.331 59.1364 177.99 56.5682 180.172 54.6136C182.377 52.6364 184.911 51.2045 187.775 50.3182C190.638 49.4091 193.65 48.9545 196.809 48.9545C198.9 48.9545 201.115 49.2045 203.456 49.7045C205.82 50.1818 208.025 51.0682 210.07 52.3636C212.138 53.6591 213.831 55.5114 215.15 57.9205C216.468 60.3068 217.127 63.4091 217.127 67.2273V102H207.172V94.8409H206.763C206.104 96.1591 205.115 97.4545 203.797 98.7273C202.479 100 200.786 101.057 198.718 101.898C196.65 102.739 194.172 103.159 191.286 103.159ZM193.502 94.9773C196.32 94.9773 198.729 94.4205 200.729 93.3068C202.752 92.1932 204.286 90.7386 205.331 88.9432C206.4 87.125 206.934 85.1818 206.934 83.1136V76.3636C206.57 76.7273 205.865 77.0682 204.82 77.3864C203.797 77.6818 202.627 77.9432 201.309 78.1705C199.99 78.375 198.706 78.5682 197.456 78.75C196.206 78.9091 195.161 79.0455 194.32 79.1591C192.343 79.4091 190.536 79.8295 188.9 80.4205C187.286 81.0114 185.99 81.8636 185.013 82.9773C184.059 84.0682 183.581 85.5227 183.581 87.3409C183.581 89.8636 184.513 91.7727 186.377 93.0682C188.24 94.3409 190.615 94.9773 193.502 94.9773ZM256.194 80.2841V49.6364H266.421V102H256.399V92.9318H255.853C254.649 95.7273 252.717 98.0568 250.058 99.9205C247.421 101.761 244.137 102.682 240.205 102.682C236.842 102.682 233.864 101.943 231.274 100.466C228.705 98.9659 226.683 96.75 225.205 93.8182C223.751 90.8864 223.024 87.2614 223.024 82.9432V49.6364H233.217V81.7159C233.217 85.2841 234.205 88.125 236.183 90.2386C238.16 92.3523 240.728 93.4091 243.887 93.4091C245.796 93.4091 247.694 92.9318 249.58 91.9773C251.489 91.0227 253.069 89.5795 254.319 87.6477C255.592 85.7159 256.217 83.2614 256.194 80.2841ZM282.63 32.1818V102H272.437V32.1818H282.63ZM313.107 49.6364V57.8182H284.504V49.6364H313.107ZM292.175 37.0909H302.368V86.625C302.368 88.6023 302.664 90.0909 303.254 91.0909C303.845 92.0682 304.607 92.7386 305.539 93.1023C306.493 93.4432 307.527 93.6136 308.641 93.6136C309.459 93.6136 310.175 93.5568 310.789 93.4432C311.402 93.3295 311.879 93.2386 312.22 93.1705L314.061 101.591C313.47 101.818 312.629 102.045 311.539 102.273C310.448 102.523 309.084 102.659 307.448 102.682C304.766 102.727 302.266 102.25 299.948 101.25C297.629 100.25 295.754 98.7045 294.323 96.6136C292.891 94.5227 292.175 91.8977 292.175 88.7386V37.0909ZM318.645 102V32.1818H328.839V58.125H329.452C330.043 57.0341 330.895 55.7727 332.009 54.3409C333.123 52.9091 334.668 51.6591 336.645 50.5909C338.623 49.5 341.236 48.9545 344.486 48.9545C348.714 48.9545 352.486 50.0227 355.805 52.1591C359.123 54.2955 361.725 57.375 363.611 61.3977C365.52 65.4205 366.475 70.2614 366.475 75.9205C366.475 81.5795 365.532 86.4318 363.645 90.4773C361.759 94.5 359.168 97.6023 355.873 99.7841C352.577 101.943 348.816 103.023 344.589 103.023C341.407 103.023 338.805 102.489 336.782 101.42C334.782 100.352 333.214 99.1023 332.077 97.6705C330.941 96.2386 330.066 94.9659 329.452 93.8523H328.6V102H318.645ZM328.634 75.8182C328.634 79.5 329.168 82.7273 330.236 85.5C331.305 88.2727 332.85 90.4432 334.873 92.0114C336.895 93.5568 339.373 94.3295 342.305 94.3295C345.35 94.3295 347.895 93.5227 349.941 91.9091C351.986 90.2727 353.532 88.0568 354.577 85.2614C355.645 82.4659 356.18 79.3182 356.18 75.8182C356.18 72.3636 355.657 69.2614 354.611 66.5114C353.589 63.7614 352.043 61.5909 349.975 60C347.93 58.4091 345.373 57.6136 342.305 57.6136C339.35 57.6136 336.85 58.375 334.805 59.8977C332.782 61.4205 331.248 63.5455 330.202 66.2727C329.157 69 328.634 72.1818 328.634 75.8182ZM392.298 103.057C387.389 103.057 383.105 101.932 379.446 99.6818C375.786 97.4318 372.946 94.2841 370.923 90.2386C368.9 86.1932 367.889 81.4659 367.889 76.0568C367.889 70.625 368.9 65.875 370.923 61.8068C372.946 57.7386 375.786 54.5795 379.446 52.3295C383.105 50.0795 387.389 48.9545 392.298 48.9545C397.207 48.9545 401.491 50.0795 405.15 52.3295C408.809 54.5795 411.65 57.7386 413.673 61.8068C415.696 65.875 416.707 70.625 416.707 76.0568C416.707 81.4659 415.696 86.1932 413.673 90.2386C411.65 94.2841 408.809 97.4318 405.15 99.6818C401.491 101.932 397.207 103.057 392.298 103.057ZM392.332 94.5C395.514 94.5 398.15 93.6591 400.241 91.9773C402.332 90.2955 403.877 88.0568 404.877 85.2614C405.9 82.4659 406.411 79.3864 406.411 76.0227C406.411 72.6818 405.9 69.6136 404.877 66.8182C403.877 64 402.332 61.7386 400.241 60.0341C398.15 58.3295 395.514 57.4773 392.332 57.4773C389.127 57.4773 386.468 58.3295 384.355 60.0341C382.264 61.7386 380.707 64 379.684 66.8182C378.684 69.6136 378.184 72.6818 378.184 76.0227C378.184 79.3864 378.684 82.4659 379.684 85.2614C380.707 88.0568 382.264 90.2955 384.355 91.9773C386.468 93.6591 389.127 94.5 392.332 94.5ZM426.388 49.6364L437.945 70.0227L449.604 49.6364H460.751L444.422 75.8182L460.888 102H449.74L437.945 82.4318L426.183 102H415.001L431.297 75.8182L415.206 49.6364H426.388Z" fill="#F4F4F4"/>
<path d="M3.4656 54.1984L51.5245 31.8769C54.0619 30.6984 57.0066 32.478 57.0066 35.1899V74.8504C57.0066 77.4185 54.3421 79.1963 51.844 78.295L3.78507 60.9559C0.636207 59.8199 0.436953 55.6051 3.4656 54.1984Z" fill="#3EBCFF"/>
<path d="M103.717 54.519L55.9265 32.3393C53.3892 31.1617 50.4454 32.9414 50.4454 35.6528V75.0613C50.4454 77.629 53.1091 79.4067 55.6071 78.5062L103.398 61.2773C106.548 60.1417 106.747 55.9252 103.717 54.519Z" fill="#3EBCFF"/>
<path fill-rule="evenodd" clip-rule="evenodd" d="M34.0069 19.7752C30.5768 23.7648 29.4265 28.636 29.4265 31.6792V54.7669H16.4336V31.6792C16.4336 26.2472 18.3192 18.4055 23.9973 11.8011C29.8924 4.94416 39.3847 0 53.2903 0C67.1959 0 76.6882 4.94416 82.5833 11.8011C88.2614 18.4055 90.147 26.2472 90.147 31.6792V54.7669H77.1541V31.6792C77.1541 28.636 76.0038 23.7648 72.5737 19.7752C69.3608 16.0381 63.6729 12.507 53.2903 12.507C42.9077 12.507 37.2198 16.0381 34.0069 19.7752Z" fill="#3EBCFF"/>
<path d="M51.9082 91.1344L5.24998 73.0321C2.73849 72.0577 0 73.8374 0 76.4439V84.6053C0 86.106 0.946956 87.4562 2.39287 88.0171L51.8857 107.219C52.813 107.579 53.8498 107.575 54.7737 107.207L104.638 87.3714C106.068 86.8028 107 85.4607 107 83.9718V76.4312C107 73.828 104.268 72.0485 101.758 73.0164L54.7576 91.1374C53.8429 91.49 52.8221 91.489 51.9082 91.1344Z" fill="#3EBCFF"/>
<path d="M51.9082 117.649L5.24998 99.5462C2.73849 98.5718 0 100.352 0 102.958V111.119C0 112.62 0.946956 113.97 2.39287 114.531L51.8857 133.733C52.813 134.093 53.8498 134.089 54.7737 133.721L104.638 113.886C106.068 113.317 107 111.975 107 110.486V102.945C107 100.342 104.268 98.5627 101.758 99.5305L54.7576 117.652C53.8429 118.004 52.8221 118.003 51.9082 117.649Z" fill="#3EBCFF"/>
</svg>
