<svg width="1063" height="1063" viewBox="0 0 1063 1063" fill="none" xmlns="http://www.w3.org/2000/svg">
<rect width="1063" height="1063" fill="#FF451C"/>
<path d="M296.307 473.535L522.606 371.589C534.554 366.206 548.42 374.334 548.42 386.72V567.856C548.42 579.585 535.873 587.704 524.11 583.588L297.811 504.398C282.984 499.209 282.046 479.959 296.307 473.535Z" fill="white"/>
<path d="M768.371 474.999L543.336 373.701C531.388 368.323 517.527 376.451 517.527 388.835V568.82C517.527 580.547 530.07 588.666 541.832 584.553L766.867 505.866C781.7 500.679 782.638 481.422 768.371 474.999Z" fill="white"/>
<path fill-rule="evenodd" clip-rule="evenodd" d="M440.124 316.316C423.972 334.538 418.555 356.785 418.555 370.684V476.13H357.375V370.684C357.375 345.875 366.254 310.061 392.991 279.898C420.75 248.581 465.447 226 530.925 226C596.403 226 641.1 248.581 668.859 279.898C695.596 310.061 704.475 345.875 704.475 370.684V476.13H643.295V370.684C643.295 356.785 637.878 334.538 621.726 316.316C606.597 299.249 579.815 283.121 530.925 283.121C482.036 283.121 455.253 299.249 440.124 316.316Z" fill="white"/>
<path d="M524.424 642.228L304.721 559.551C292.895 555.101 280 563.229 280 575.134V612.408C280 619.262 284.459 625.428 291.267 627.991L524.318 715.69C528.684 717.333 533.566 717.313 537.917 715.634L772.717 625.042C779.448 622.444 783.839 616.315 783.839 609.515V575.076C783.839 563.187 770.975 555.059 759.154 559.48L537.841 642.241C533.534 643.852 528.727 643.847 524.424 642.228Z" fill="white"/>
<path d="M524.424 763.32L304.721 680.644C292.895 676.193 280 684.321 280 696.226V733.501C280 740.354 284.459 746.521 291.267 749.083L524.318 836.782C528.684 838.425 533.566 838.405 537.917 836.727L772.717 746.134C779.448 743.537 783.839 737.407 783.839 730.607V696.168C783.839 684.279 770.975 676.151 759.154 680.572L537.841 763.334C533.534 764.944 528.727 764.939 524.424 763.32Z" fill="white"/>
</svg>
