<svg width="478" height="145" viewBox="0 0 478 145" fill="none" xmlns="http://www.w3.org/2000/svg">
<path d="M191.025 62.6875L173.354 112H162.479L144.713 62.6875H155.494L167.869 102.109H168.057L180.432 62.6875H191.025ZM210.177 104.828C217.255 104.828 222.786 99.9531 222.786 93.5312V89.6406L210.645 90.3906C204.599 90.8125 201.177 93.4844 201.177 97.7031C201.177 102.016 204.739 104.828 210.177 104.828ZM207.364 112.844C197.708 112.844 190.958 106.844 190.958 97.9844C190.958 89.3594 197.567 84.0625 209.286 83.4062L222.786 82.6094V78.8125C222.786 73.3281 219.083 70.0469 212.895 70.0469C207.036 70.0469 203.38 72.8594 202.489 77.2656H192.927C193.489 68.3594 201.083 61.7969 213.27 61.7969C225.224 61.7969 232.864 68.125 232.864 78.0156V112H223.161V103.891H222.927C220.067 109.375 213.833 112.844 207.364 112.844ZM282.109 62.6875V112H272.406V103.656H272.172C269.453 109.562 264.437 112.891 256.89 112.891C246.156 112.891 239.594 105.906 239.594 94.6094V62.6875H249.719V92.6406C249.719 100.141 253.281 104.172 260.265 104.172C267.578 104.172 271.984 99.1094 271.984 91.4219V62.6875H282.109ZM289.635 112V44.3594H299.76V112H289.635ZM310.24 51.0156H320.412V62.6875H329.787V70.7031H320.412V97.8906C320.412 102.156 322.287 104.078 326.412 104.078C327.443 104.078 329.084 103.984 329.74 103.844V111.859C328.615 112.141 326.365 112.328 324.115 112.328C314.13 112.328 310.24 108.531 310.24 99.0156V70.7031H303.068V62.6875H310.24V51.0156ZM361.5 112.844C354.282 112.844 348.704 109.328 345.657 103.609H345.469V112H335.625V44.3594H345.75V71.0781H345.985C348.938 65.3594 354.563 61.8906 361.547 61.8906C373.969 61.8906 382.079 71.7344 382.079 87.3438C382.079 103 374.016 112.844 361.5 112.844ZM358.782 70.4219C351.094 70.4219 345.704 77.1719 345.704 87.3438C345.704 97.6094 351.094 104.266 358.782 104.266C366.75 104.266 371.672 97.7969 371.672 87.3438C371.672 76.9844 366.75 70.4219 358.782 70.4219ZM408.308 112.938C394.199 112.938 384.917 103.234 384.917 87.3438C384.917 71.5 394.245 61.7969 408.308 61.7969C422.37 61.7969 431.699 71.5 431.699 87.3438C431.699 103.234 422.417 112.938 408.308 112.938ZM408.308 104.594C416.277 104.594 421.386 98.3125 421.386 87.3438C421.386 76.4219 416.23 70.1406 408.308 70.1406C400.386 70.1406 395.23 76.4219 395.23 87.3438C395.23 98.3125 400.386 104.594 408.308 104.594ZM454.084 93.8594H453.85L442.928 112H431.959L448.225 87.3906L432.194 62.6875H443.537L454.319 80.5469H454.506L465.147 62.6875H476.303L460.131 87.0625L476.115 112H464.959L454.084 93.8594Z" fill="black"/>
<path d="M3.84883 58.4232L57.2599 34.3619C60.0798 33.0915 63.3525 35.0098 63.3525 37.9332V80.6849C63.3525 83.4532 60.3913 85.3695 57.6149 84.3979L4.20388 65.7075C0.704339 64.4829 0.482894 59.9395 3.84883 58.4232Z" fill="#FF451C"/>
<path d="M115.265 58.7689L62.1525 34.8605C59.3326 33.5912 56.061 35.5095 56.061 38.4323V80.9124C56.061 83.6803 59.0214 85.5965 61.7976 84.6258L114.91 66.0541C118.411 64.8299 118.633 60.2848 115.265 58.7689Z" fill="#FF451C"/>
<path fill-rule="evenodd" clip-rule="evenodd" d="M37.7921 21.3165C33.98 25.6171 32.7016 30.868 32.7016 34.1484V59.0357H18.2617V34.1484C18.2617 28.2929 20.3574 19.8401 26.6677 12.7209C33.2194 5.32952 43.7688 0 59.223 0C74.6773 0 85.2267 5.32952 91.7784 12.7209C98.0887 19.8401 100.184 28.2929 100.184 34.1484V59.0357H85.7445V34.1484C85.7445 30.868 84.466 25.6171 80.654 21.3165C77.0833 17.2881 70.762 13.4818 59.223 13.4818C47.6841 13.4818 41.3628 17.2881 37.7921 21.3165Z" fill="#FF451C"/>
<path d="M57.6891 98.2381L5.83466 78.7249C3.04347 77.6745 0 79.5929 0 82.4026V91.2002C0 92.8178 1.05242 94.2732 2.65936 94.8779L57.664 115.577C58.6946 115.964 59.8468 115.96 60.8737 115.564L116.291 94.1819C117.88 93.5689 118.916 92.1222 118.916 90.5172V82.3889C118.916 79.5829 115.88 77.6646 113.09 78.7079L60.8558 98.2413C59.8393 98.6215 58.7047 98.6203 57.6891 98.2381Z" fill="#FF451C"/>
<path d="M57.6891 126.818L5.83466 107.305C3.04347 106.255 0 108.173 0 110.983V119.78C0 121.398 1.05242 122.853 2.65936 123.458L57.664 144.157C58.6946 144.545 59.8468 144.54 60.8737 144.144L116.291 122.762C117.88 122.149 118.916 120.702 118.916 119.097V110.969C118.916 108.163 115.88 106.245 113.09 107.288L60.8558 126.822C59.8393 127.202 58.7047 127.201 57.6891 126.818Z" fill="#FF451C"/>
</svg>
